#!OML:ASF H:\Punching\Project 1\Capture day 1\Session 1\female.ASF
:FULLY-SPECIFIED
:DEGREES
1220
root -2.28961 15.707 6.99451 14.5954 2.03227 1.64366
lowerback -4.79069 -0.866047 0.750658
upperback -7.48068 -1.17674 -0.258806
thorax -5.08312 -0.636302 -0.6908
lowerneck -8.70117 6.32049 12.2479
upperneck 27.3806 8.90863 -8.10456
head 11.2174 4.45554 -3.92186
rclavicle 1.676e-014 -2.38542e-015
rhumerus -52.87 -8.74683 -74.9743
rradius 27.0098
rwrist -7.46563
rhand -6.1398 -21.423
rfingers 7.12502
rthumb 19.698 -50.4449
lclavicle 1.676e-014 -2.38542e-015
lhumerus -61.4024 6.95619 79.7526
lradius 33.064
lwrist 3.88581
lhand 3.62174 21.4652
lfingers 7.12502
lthumb 29.0545 49.2195
rfemur -20.1819 4.14445 18.1487
rtibia 30.7776
rfoot -26.0882 -22.4568
rtoes 5.09542
lfemur -11.2728 -17.8092 -15.9721
ltibia 16.942
lfoot -20.1152 27.2592
ltoes 2.11513
1221
root -2.27473 15.7059 6.97194 14.6425 2.24814 1.51511
lowerback -4.761 -0.900735 0.872898
upperback -7.449 -1.22051 -0.15946
thorax -5.06757 -0.66125 -0.656082
lowerneck -8.81982 6.2871 12.1816
upperneck 27.3238 8.85249 -8.09707
head 11.2081 4.42052 -3.91174
rclavicle -1.41696e-014 -9.93923e-016
rhumerus -53.1688 -8.31842 -75.2966
rradius 27.7534
rwrist -8.87179
rhand -5.69407 -21.4756
rfingers 7.12502
rthumb 20.1264 -50.4531
lclavicle -1.41696e-014 -9.93923e-016
lhumerus -61.7265 6.8898 80.1088
lradius 33.5246
lwrist 4.52364
lhand 4.65052 21.4278
lfingers 7.12502
lthumb 30.0366 49.0084
rfemur -20.3092 4.03846 18.2573
rtibia 30.7941
rfoot -26.0047 -22.5647
rtoes 5.13676
lfemur -11.384 -18.7073 -15.7664
ltibia 16.8618
lfoot -20.328 27.9268
ltoes 2.46235
1222
root -2.26052 15.7071 6.94941 14.6943 2.47726 1.39465
lowerback -4.73217 -0.938074 0.979496
upperback -7.41259 -1.26774 -0.0634413
thorax -5.04636 -0.687138 -0.616148
lowerneck -8.93314 6.24984 12.1234
upperneck 27.2501 8.78935 -8.09193
head 11.191 4.38294 -3.90473
rclavicle 5.10628e-015 -6.36111e-015
rhumerus -53.4191 -7.94087 -75.6056
rradius 28.4795
rwrist -10.0398
rhand -5.4274 -21.4709
rfingers 7.12502
rthumb 20.3827 -50.4211
lclavicle 5.10628e-015 -6.36111e-015
lhumerus -62.0145 6.78514 80.5249
lradius 34.1083
lwrist 5.27595
lhand 5.53302 21.5044
lfingers 7.12502
lthumb 30.8782 48.929
rfemur -20.4134 3.93949 18.3605
rtibia 30.7591
rfoot -25.9023 -22.6967
rtoes 5.18093
lfemur -11.5524 -19.2713 -15.5543
ltibia 16.8566
lfoot -20.4547 28.1944
ltoes 2.68326
1223
root -2.24744 15.71 6.92731 14.7386 2.71408 1.29587
lowerback -4.69186 -0.977773 1.05591
upperback -7.37147 -1.31804 0.0219157
thorax -5.02622 -0.713263 -0.570244
lowerneck -9.03989 6.20736 12.0724
upperneck 27.1671 8.71475 -8.07748
head 11.1678 4.342 -3.89708
rclavicle -2.60035e-014 -7.35503e-015
rhumerus -53.6106 -7.66437 -75.8551
rradius 29.1323
rwrist -10.8919
rhand -5.28401 -21.4302
rfingers 7.12502
rthumb 20.5205 -50.3657
lclavicle -2.60035e-014 -7.35503e-015
lhumerus -62.2483 6.66995 80.9525
lradius 34.7566
lwrist 6.10722
lhand 6.22237 21.674
lfingers 7.12502
lthumb 31.5352 48.9721
rfemur -20.4874 3.86286 18.4443
rtibia 30.6904
rfoot -25.8005 -22.8623
rtoes 5.23781
lfemur -11.7422 -19.4662 -15.3619
ltibia 16.8836
lfoot -20.4551 28.0441
ltoes 2.75165
1224
root -2.23608 15.7144 6.90484 14.7871 2.95077 1.22659
lowerback -4.64828 -1.01754 1.08507
upperback -7.33029 -1.36821 0.0960087
thorax -5.00688 -0.737206 -0.509542
lowerneck -9.13358 6.15694 12.0244
upperneck 27.0758 8.62501 -8.0485
head 11.1365 4.29635 -3.88685
rclavicle -5.80824e-015 1.2921e-014
rhumerus -53.7252 -7.54097 -75.9846
rradius 29.6472
rwrist -11.376
rhand -5.19246 -21.3544
rfingers 7.12502
rthumb 20.6085 -50.2804
lclavicle -5.80824e-015 1.2921e-014
lhumerus -62.424 6.5593 81.3633
lradius 35.4536
lwrist 6.98562
lhand 6.713 21.9766
lfingers 7.12502
lthumb 32.0025 49.1821
rfemur -20.5603 3.82492 18.4982
rtibia 30.6103
rfoot -25.7048 -23.0709
rtoes 5.31288
lfemur -11.9585 -19.3326 -15.1955
ltibia 16.9061
lfoot -20.3006 27.5394
ltoes 2.69447
1225
root -2.22626 15.7193 6.88285 14.8304 3.18296 1.19634
lowerback -4.59799 -1.05781 1.0628
upperback -7.29062 -1.41893 0.154657
thorax -4.99187 -0.759263 -0.435939
lowerneck -9.20716 6.09904 11.9798
upperneck 26.9855 8.52147 -8.00226
head 11.0995 4.24719 -3.87323
rclavicle 2.20527e-014 -7.7526e-015
rhumerus -53.7637 -7.59059 -75.9699
rradius 29.991
rwrist -11.5024
rhand -5.1433 -21.2577
rfingers 7.12502
rthumb 20.6557 -50.1786
lclavicle 2.20527e-014 -7.7526e-015
lhumerus -62.5362 6.47499 81.7205
lradius 36.1411
lwrist 7.85543
lhand 6.97466 22.3919
lfingers 7.12502
lthumb 32.2516 49.547
rfemur -20.6245 3.82074 18.5116
rtibia 30.5367
rfoot -25.6348 -23.3148
rtoes 5.4097
lfemur -12.1768 -18.9482 -15.0781
ltibia 16.9054
lfoot -19.9979 26.7828
ltoes 2.51783
1226
root -2.21786 15.7243 6.86119 14.8657 3.41033 1.19886
lowerback -4.53395 -1.09741 1.00078
upperback -7.25511 -1.46873 0.197886
thorax -4.98819 -0.779357 -0.355726
lowerneck -9.26475 6.03344 11.9298
upperneck 26.9089 8.40283 -7.92722
head 11.0614 4.19423 -3.85072
rclavicle 2.24875e-014 9.74045e-015
rhumerus -53.7281 -7.82295 -75.7966
rradius 30.1485
rwrist -11.294
rhand -5.13453 -21.1793
rfingers 7.12502
rthumb 20.6641 -50.0992
lclavicle 2.24875e-014 9.74045e-015
lhumerus -62.5749 6.43059 81.9947
lradius 36.7605
lwrist 8.65609
lhand 7.01005 22.8871
lfingers 7.12502
lthumb 32.2853 50.0354
rfemur -20.682 3.84828 18.4918
rtibia 30.4787
rfoot -25.5908 -23.5956
rtoes 5.51251
lfemur -12.391 -18.4138 -15.0086
ltibia 16.8797
lfoot -19.5845 25.8943
ltoes 2.25876
1227
root -2.21062 15.7289 6.8402 14.8969 3.62113 1.2181
lowerback -4.46714 -1.13245 0.913388
upperback -7.22514 -1.51247 0.233097
thorax -4.99123 -0.795421 -0.269454
lowerneck -9.30507 5.96306 11.8841
upperneck 26.8517 8.27716 -7.84203
head 11.0264 4.14019 -3.82696
rclavicle 5.2181e-016 1.98785e-015
rhumerus -53.6237 -8.21837 -75.4706
rradius 30.1082
rwrist -10.8264
rhand -5.21553 -21.0511
rfingers 7.12502
rthumb 20.5863 -49.9795
lclavicle 5.2181e-016 1.98785e-015
lhumerus -62.5517 6.43975 82.1704
lradius 37.2892
lwrist 9.32789
lhand 6.87719 23.4107
lfingers 7.12502
lthumb 32.1588 50.5846
rfemur -20.7393 3.91604 18.4527
rtibia 30.4368
rfoot -25.5775 -23.9055
rtoes 5.62412
lfemur -12.5991 -17.8507 -14.9721
ltibia 16.84
lfoot -19.1355 25.0156
ltoes 1.99774
1228
root -2.20409 15.7335 6.82005 14.9267 3.81422 1.24499
lowerback -4.40476 -1.16159 0.816786
upperback -7.20065 -1.54862 0.261264
thorax -4.99726 -0.807479 -0.185311
lowerneck -9.32919 5.88863 11.8419
upperneck 26.8184 8.14575 -7.74642
head 10.9966 4.08558 -3.80151
rclavicle 1.59028e-015 -7.35503e-015
rhumerus -53.4593 -8.75907 -75.0082
rradius 29.8946
rwrist -10.1657
rhand -5.38773 -20.9294
rfingers 7.12502
rthumb 20.4208 -49.8756
lclavicle 1.59028e-015 -7.35503e-015
lhumerus -62.4489 6.5174 82.2229
lradius 37.6565
lwrist 9.80572
lhand 6.63621 23.9011
lfingers 7.12502
lthumb 31.9293 51.1212
rfemur -20.7951 4.01022 18.4042
rtibia 30.4047
rfoot -25.5954 -24.2329
rtoes 5.72986
lfemur -12.8058 -17.3248 -14.9614
ltibia 16.8044
lfoot -18.681 24.2349
ltoes 1.71003
1229
root -2.19758 15.738 6.80094 14.9582 3.98123 1.27017
lowerback -4.35715 -1.17999 0.726563
upperback -7.18215 -1.57089 0.283957
thorax -5.00144 -0.813121 -0.110631
lowerneck -9.33387 5.80953 11.8094
upperneck 26.8123 8.01018 -7.65191
head 10.9735 4.03065 -3.77964
rclavicle 1.125e-014 -1.09332e-014
rhumerus -53.251 -9.40167 -74.4414
rradius 29.5448
rwrist -9.3773
rhand -5.63971 -20.8335
rfingers 7.12502
rthumb 20.1787 -49.8055
lclavicle 1.125e-014 -1.09332e-014
lhumerus -62.2743 6.66477 82.1447
lradius 37.8467
lwrist 10.049
lhand 6.38051 24.3109
lfingers 7.12502
lthumb 31.6858 51.5794
rfemur -20.8512 4.11054 18.3545
rtibia 30.3739
rfoot -25.6339 -24.5527
rtoes 5.80946
lfemur -13.0115 -16.895 -14.9668
ltibia 16.7891
lfoot -18.2706 23.6217
ltoes 1.4326
1230
root -2.1907 15.7426 6.78285 14.9945 4.11178 1.28961
lowerback -4.32716 -1.18456 0.647992
upperback -7.16915 -1.57508 0.303391
thorax -5.00174 -0.810449 -0.0461723
lowerneck -9.3311 5.72888 11.7853
upperneck 26.8406 7.87519 -7.56206
head 10.9628 3.97679 -3.76158
rclavicle 9.2994e-015 -6.95746e-015
rhumerus -53.0114 -10.0926 -73.8131
rradius 29.1079
rwrist -8.54061
rhand -5.96006 -20.7764
rfingers 7.12502
rthumb 19.8708 -49.7806
lclavicle 9.2994e-015 -6.95746e-015
lhumerus -62.0264 6.89114 81.9289
lradius 37.8449
lwrist 10.0311
lhand 6.17733 24.6157
lfingers 7.12502
lthumb 31.4923 51.9222
rfemur -20.9117 4.21017 18.3052
rtibia 30.3393
rfoot -25.6873 -24.8478
rtoes 5.85148
lfemur -13.2173 -16.5783 -14.9821
ltibia 16.8007
lfoot -17.9282 23.199
ltoes 1.19511
1231
root -2.18305 15.7471 6.76609 15.0344 4.1979 1.29759
lowerback -4.31909 -1.17199 0.591658
upperback -7.16088 -1.55684 0.319865
thorax -4.9953 -0.797815 0.00233327
lowerneck -9.32223 5.6479 11.7698
upperneck 26.907 7.74317 -7.4795
head 10.9666 3.92487 -3.74804
rclavicle -1.60643e-014 -1.19271e-015
rhumerus -52.7518 -10.7837 -73.1646
rradius 28.6235
rwrist -7.72138
rhand -6.36482 -20.7452
rfingers 7.12502
rthumb 19.4816 -49.7892
lclavicle -1.60643e-014 -1.19271e-015
lhumerus -61.7159 7.20106 81.5719
lradius 37.6605
lwrist 9.74685
lhand 6.05379 24.8052
lfingers 7.12502
lthumb 31.3746 52.1346
rfemur -20.9759 4.29923 18.2608
rtibia 30.2985
rfoot -25.7475 -25.0995
rtoes 5.85167
lfemur -13.4165 -16.3552 -15.0024
ltibia 16.8386
lfoot -17.6519 22.9513
ltoes 0.978023
1232
root -2.17451 15.7511 6.75089 15.0688 4.23003 1.29063
lowerback -4.32121 -1.14003 0.560796
upperback -7.15458 -1.51305 0.334947
thorax -4.98587 -0.773773 0.0349392
lowerneck -9.32234 5.57011 11.7553
upperneck 27.0161 7.61792 -7.39982
head 10.9895 3.87608 -3.73533
rclavicle -2.98177e-016 5.76476e-015
rhumerus -52.4806 -11.4429 -72.5198
rradius 28.1306
rwrist -6.92296
rhand -6.81997 -20.7383
rfingers 7.12502
rthumb 19.044 -49.826
lclavicle -2.98177e-016 5.76476e-015
lhumerus -61.3604 7.58428 81.0939
lradius 37.347
lwrist 9.24319
lhand 6.00611 24.9261
lfingers 7.12502
lthumb 31.3291 52.2643
rfemur -21.0371 4.37863 18.2245
rtibia 30.2527
rfoot -25.8024 -25.2997
rtoes 5.78531
lfemur -13.5894 -16.2114 -15.0246
ltibia 16.8944
lfoot -17.4512 22.8547
ltoes 0.82538
